<svg xmlns="http://www.w3.org/2000/svg" xmlns:xlink="http://www.w3.org/1999/xlink" width="351.385" height="45.116" viewBox="0 0 351.385 45.116">
  <defs>
    <clipPath id="clip-path">
      <rect id="長方形_993" data-name="長方形 993" width="351.385" height="45.116" fill="none"/>
    </clipPath>
  </defs>
  <g id="グループ_926" data-name="グループ 926" transform="translate(0 0)">
    <g id="グループ_925" data-name="グループ 925" transform="translate(0 0)" clip-path="url(#clip-path)">
      <path id="パス_207" data-name="パス 207" d="M271.942,21.736a2.117,2.117,0,1,0,0-4.234,2.117,2.117,0,0,0,0,4.234" transform="translate(-121.44 -7.876)" fill="#1a1311"/>
      <path id="パス_208" data-name="パス 208" d="M305.232,32.9h0" transform="translate(-137.355 -14.804)" fill="#1a1311"/>
      <path id="パス_209" data-name="パス 209" d="M266.848,30.338c-1.957,4.074-4.154,7.19-6.191,7.19-1.438,0-1.318-1.558-.839-3.076l1.637-5.392c1.119-3.515.2-7.149-3.794-7.149-2.236,0-4.194,1.4-5.871,3.555l.719-2.357.16-.559a.239.239,0,0,0-.24-.32h-3.076a.482.482,0,0,0-.439.32l-.16.559L246,32.056c-1.2,2.636-2.237,4.753-4.474,6.431a9.931,9.931,0,0,1-1.278.8L245.2,23.069l.16-.559a.239.239,0,0,0-.24-.32H242a.481.481,0,0,0-.439.32l-.16.559-.839,2.716c.04-.12.279-.879.279-.959v.04c-.119.439-.439.439-.6.08,0-.04,0-.04-.04-.08v-.04a5.114,5.114,0,0,0-4.913-2.956c-5.392,0-9.586,6.191-9.586,11.823,0,.36.04.679.04,1a.38.38,0,0,1-.08.279c-1.2,1.6-2.4,2.556-3.715,2.556-1.917,0-1.917-1.877-1.4-3.595l3.275-10.825.16-.559a.239.239,0,0,0-.24-.32h-3.076a.482.482,0,0,0-.439.32l-.16.559-3.035,9.946a9.955,9.955,0,0,0-.28,1.039,11.382,11.382,0,0,1-2.916,2.8,7.282,7.282,0,0,0,.759-3.235c0-4.034-3.515-7.989-4.953-11.943,0,0-.04-.12-.08-.28a.549.549,0,0,0-.439-.32l-2.117-.239c-.16,0-.359.04-.4.16a81.076,81.076,0,0,1-4.034,8.907h.04a2.15,2.15,0,0,0-1.957,1.2,4.775,4.775,0,0,0-.6,2.436,6.619,6.619,0,0,0,.08.919,9.089,9.089,0,0,1-6.51,3.115c-2.836,0-4.713-1.558-5.033-4.314,0-.24.08-.4.439-.4h-.12c7.909.24,11.1-3.555,11.1-6.511,0-2.436-2.077-4.473-5.631-4.473-5.432,0-9.187,4.753-9.746,9.626v.04c-1.8,3.435-3.794,5.952-5.552,5.952-1.478,0-1.318-1.637-.879-3.076l5.712-18.613.16-.559a.239.239,0,0,0-.24-.32h-3.115a.483.483,0,0,0-.439.32l-.16.559-2.756,8.987c-.08.24-.479.439-.639,0a5.115,5.115,0,0,0-4.913-2.956c-5.392,0-9.586,6.191-9.586,11.823,0,4.194,2.356,6.471,5.712,6.471a8.011,8.011,0,0,0,5.672-2.516c.2-.2.6-.2.8.32a2.912,2.912,0,0,0,3.156,2.2c2.6,0,4.833-1.877,6.75-4.673.2-.239.519-.32.719.16l-.04-.2c1,3.035,3.715,4.753,7.509,4.753a11.272,11.272,0,0,0,7.909-3.2c.4-.36.639-.24.959.2l-.04-.04a8.217,8.217,0,0,0,6.63,3.036,11.932,11.932,0,0,0,8.268-2.916c.32-.239.519-.12.639.2.4,1.6,1.558,2.676,3.755,2.676a7.286,7.286,0,0,0,5.432-2.836.3.3,0,0,1,.559.08l-.12-.24a5.293,5.293,0,0,0,5.032,3,7.829,7.829,0,0,0,5.432-2.317l-1,3.235c-3.555,1.159-9.985,1.718-9.985,6.231,0,2.317,1.8,3.994,4.593,3.994,2.836,0,6.551-1.8,8.628-8.468l.359-1.2a15.711,15.711,0,0,0,1.638-.879,12.584,12.584,0,0,0,2.916-2.436l-.479,1.518H247.4l3.435-11.3c1.318-2,3.035-3.515,4.913-3.515,2.317,0,2.556,2,1.917,4.074l-1.4,4.553c-.8,2.676-.879,6.55,2.875,6.55,3.795,0,6.87-4.074,9.227-9.107-.279-.36-1.278-1.358-1.517-.759m-72.575-5.232c1.6,0,2.317.839,2.317,1.877,0,1.8-2.237,4.074-7.389,4.194-.36,0-.519-.2-.48-.559.639-3,2.836-5.512,5.552-5.512m-24.764,11.9c-1.957,0-3.315-1.318-3.315-3.794,0-3.715,2.8-7.829,6.071-7.829,1.877,0,3.355,1.278,3.355,3.794.04,3.715-2.8,7.829-6.111,7.829m15.218-2.237h0c0,.04.04.08.04.16Zm16.136,1.758h0m6.151,1.2a3.53,3.53,0,0,1-3.675-3,2.628,2.628,0,0,1-.04-.559,2.253,2.253,0,0,0,1.478-2.077,2.346,2.346,0,0,0-.519-1.438,63.768,63.768,0,0,0,3.076-6.67c1.158,3.435,3.555,6.75,3.555,9.546-.04,2.516-1.638,4.194-3.875,4.194m19.372-.759h0a.039.039,0,0,0,.04.04Zm8.708,6.83c-1.158,3.715-3,5.392-4.913,5.392a2.027,2.027,0,0,1-2.157-2.037c0-2.436,3.954-3,7.269-3.954Zm-2.037-6.79c-1.957,0-3.315-1.318-3.315-3.794,0-3.715,2.8-7.829,6.071-7.829,1.877,0,3.355,1.278,3.355,3.794,0,3.715-2.8,7.829-6.111,7.829" transform="translate(-73.008 -6.732)" fill="#1a1311"/>
      <path id="パス_210" data-name="パス 210" d="M25.363,17.934s.6-1.678.679-2.077c.04-.24-.119-.32-.279-.32H22.008c.758-2.516,2.2-7.789,4.194-9.985,1.718,1.158,3.914,2.356,6.031,2.356,4.074,0,6.111-2,6.111-4.074,0-2.2-2-3.835-5.991-3.835C24.445,0,21.009,4.194,17.934,15.537H12.821c-.159,0-.239.12-.279.28l-.679,2.037a.2.2,0,0,0,.2.28H17.1L14.3,27.56c-1.6,5.272-3.555,8.268-7.628,8.268-4.753,0-5.233-4.034-5.233-4.034S0,32.233,0,33.073c0,3,3.195,5.712,6.67,5.712,3.874,0,8.507-.759,11.583-10.9l2.876-9.706h3.835c.359-.04.359-.12.4-.239m8.028-15.7c1.558,0,2.676.519,2.676,1.478,0,.879-1.038,1.757-3.2,1.757A17.1,17.1,0,0,1,27.56,4.354a9.133,9.133,0,0,1,5.832-2.117" transform="translate(0 0)" fill="#1a1311"/>
      <path id="パス_211" data-name="パス 211" d="M91.054,37.654h0c.2-.2.6-.2.759.32a2.911,2.911,0,0,0,3.155,2.2c3.795,0,6.871-4.114,9.227-9.107-.239-.279-1.318-1.158-1.517-.759-1.957,4.074-4.194,7.19-6.151,7.19-1.478,0-1.318-1.637-.879-3.075l5.712-18.653.16-.559a.239.239,0,0,0-.24-.32H98.164a.483.483,0,0,0-.439.32l-.16.559-2.756,9.027c-.08.239-.479.439-.639,0a5.153,5.153,0,0,0-4.913-2.956c-5.432,0-9.586,6.191-9.586,11.823a3.635,3.635,0,0,0,.04.679V34.3a1.553,1.553,0,0,1-.24,1c-1.079,1.358-2.237,2.2-3.4,2.2-1.917,0-1.917-1.877-1.4-3.595L80.19,15.766l.16-.559a.239.239,0,0,0-.24-.32H77.035a.483.483,0,0,0-.439.32l-.16.559L71.164,32.941a2.119,2.119,0,0,1-.439.839c-1.957,2.356-4.434,3.834-7.15,3.834a4.709,4.709,0,0,1-5.112-4.753c8.188.4,11.463-3.475,11.463-6.51,0-2.436-2.077-4.474-5.632-4.474-5.911,0-9.826,5.592-9.826,10.864a7.479,7.479,0,0,0,.16,1.678c-1.318,1.917-2.676,3.115-4.074,3.115-1.917,0-1.917-1.877-1.4-3.595l3.275-10.864.16-.559a.239.239,0,0,0-.24-.32H49.275a.481.481,0,0,0-.439.32l-.16.559L45.64,33.021c-1.119,3.595-.48,7.149,3.475,7.149,2.276,0,4.234-1.318,5.911-3.4.12-.12.279-.2.4-.12,1.278,2.277,3.755,3.555,6.99,3.555a11.07,11.07,0,0,0,7.629-2.956c.2-.2.6-.24.759.279v-.04a3.509,3.509,0,0,0,3.754,2.637,6.974,6.974,0,0,0,5.113-2.477c.4-.439.8-.2,1.118.24l-.04-.08a5.354,5.354,0,0,0,4.633,2.277,7.559,7.559,0,0,0,5.672-2.436m-26.8-12.582c1.6,0,2.317.839,2.317,1.877,0,1.838-2.4,4.274-8.028,4.194.519-3.195,2.836-6.071,5.712-6.071m6.83,8.148a.363.363,0,0,0-.04.2,1.124,1.124,0,0,1,.04-.2m-.4,3.515h0v0Zm9.027-1.917v.12c.04,0,.04-.04,0-.12m7.269,2.2c-1.957,0-3.315-1.318-3.315-3.794,0-3.715,2.8-7.829,6.112-7.829,1.877,0,3.355,1.278,3.355,3.794-.04,3.715-2.836,7.829-6.151,7.829" transform="translate(-20.317 -6.699)" fill="#1a1311"/>
      <path id="パス_212" data-name="パス 212" d="M53.886,19.619A2.081,2.081,0,0,0,56,21.736a2.117,2.117,0,1,0-2.117-2.117" transform="translate(-24.249 -7.876)" fill="#1a1311"/>
      <path id="パス_213" data-name="パス 213" d="M361.221,29.925l3.875-4.231c1.835,2.8,5.557,4.231,9.024,4.231,3.926,0,5.965-1.886,5.965-4.589,0-2.192-1.377-3.772-4.64-4.486l-4.129-.917c-5.608-1.224-8.514-4.435-8.514-8.922,0-5.965,5.149-10.553,12.49-10.553,4.64,0,9.33,1.835,11.318,4.792l-4.028,4.028c-1.58-2.447-4.69-3.62-7.545-3.62-3.722,0-5.812,1.988-5.812,4.639,0,2.4,1.682,3.722,4.588,4.385l4.129.918c5.4,1.173,8.566,4.385,8.566,9.024,0,5.914-5.1,10.5-12.9,10.5-4.894,0-10.145-1.886-12.389-5.2" transform="translate(-162.55 -0.206)" fill="#1a1311"/>
      <path id="パス_214" data-name="パス 214" d="M417.653,44.094l-9.024-21.668h5.965l6.22,15.7,6.22-15.7h5.353L418.775,55.208h-5.812Z" transform="translate(-183.883 -10.092)" fill="#1a1311"/>
      <path id="パス_215" data-name="パス 215" d="M450.9,41.281l2.957-3.416a7.9,7.9,0,0,0,6.322,2.549c2.753,0,4.436-.918,4.436-2.549,0-1.122-.765-1.937-3.161-2.346l-3.62-.612c-4.079-.714-6.016-3.161-6.016-6.066,0-4.334,4.334-7.342,9.738-7.342,3.722,0,6.934,1.428,8.362,3.569l-3.11,3.263A6.644,6.644,0,0,0,461.2,25.68c-2.243,0-3.722.918-3.722,2.55,0,1.325.815,2.09,3.518,2.549l3.059.51c4.181.765,6.22,3.008,6.22,5.914,0,4.486-4.537,7.392-10.5,7.392-3.926,0-7.443-1.274-8.871-3.313" transform="translate(-202.906 -9.675)" fill="#1a1311"/>
      <path id="パス_216" data-name="パス 216" d="M493.7,29.99V20.864h-4.028V16.99h.459c3.62,0,5.1-2.295,5.1-5.608V9.393h.408a11.151,11.151,0,0,0,3.875-.408v7.393h8.311v4.487h-8.311v9.992c0,2.5,1.224,3.62,2.8,3.62a4.06,4.06,0,0,0,3.467-2.5l3.976,2.549c-1.274,2.855-4.181,4.435-7.6,4.435-5.15,0-8.463-3.517-8.463-8.973" transform="translate(-220.355 -4.043)" fill="#1a1311"/>
      <path id="パス_217" data-name="パス 217" d="M527.646,33.123A11.747,11.747,0,0,1,539.067,21.5c6.066,0,10.859,5.047,10.859,12.491H533.56c.1,3.415,2.5,6.118,6.577,6.118,2.856,0,4.589-1.224,5.507-3.314l4.129,2.243c-1.682,3.314-5,5.557-9.84,5.557-7.087,0-12.287-5.2-12.287-11.471m5.965-2.4h10.5c-.255-2.906-2.193-5.251-5.2-5.251s-4.946,2.447-5.3,5.251" transform="translate(-237.441 -9.675)" fill="#1a1311"/>
      <path id="パス_218" data-name="パス 218" d="M572.7,22.009h1.937a11.188,11.188,0,0,0,3.875-.408v4.487c1.326-2.855,4.129-4.589,7.852-4.589,3.517,0,6.015,1.682,6.984,4.793,1.326-3.008,4.231-4.793,8.259-4.793,4.69,0,7.495,2.855,7.495,8.055v14.53h-5.812V30.676c0-3.059-1.223-4.181-3.671-4.181-3.517,0-5.812,2.345-5.812,6.475V44.084h-5.812V30.676c0-3.059-1.224-4.181-3.671-4.181-3.518,0-5.812,2.345-5.812,6.475V44.084H572.7Z" transform="translate(-257.715 -9.675)" fill="#1a1311"/>
    </g>
  </g>
</svg>
