<svg id="レイヤー_1" data-name="レイヤー 1" xmlns="http://www.w3.org/2000/svg" viewBox="0 0 200 50"><title>global_logo</title><rect width="200" height="50"/><path d="M42.44,28a3.22,3.22,0,0,1-1.34,2.77,6.28,6.28,0,0,1-3.75,1,8.15,8.15,0,0,1-4-.81v-1.8a9.64,9.64,0,0,0,2,.74,8.29,8.29,0,0,0,2,.27,4.64,4.64,0,0,0,2.34-.49,1.67,1.67,0,0,0,.17-2.77,10.24,10.24,0,0,0-2.54-1.26,13.76,13.76,0,0,1-2.55-1.17,3.48,3.48,0,0,1-1.12-1.13,3,3,0,0,1-.37-1.51,2.88,2.88,0,0,1,1.28-2.48,6,6,0,0,1,3.5-.91,10.25,10.25,0,0,1,4.05.84l-.69,1.58A9.31,9.31,0,0,0,38,20a4,4,0,0,0-2.09.43,1.34,1.34,0,0,0-.7,1.2,1.46,1.46,0,0,0,.26.88,2.6,2.6,0,0,0,.85.69,19,19,0,0,0,2.25.95,8.41,8.41,0,0,1,3.09,1.68A3,3,0,0,1,42.44,28Z" style="fill:#f7f8f8"/><path d="M53.51,31.49l-.39-1.83H53a5.4,5.4,0,0,1-1.92,1.63,5.84,5.84,0,0,1-2.38.43,4.29,4.29,0,0,1-3-1,3.59,3.59,0,0,1-1.08-2.8q0-3.89,6.22-4.08L53,23.79V23a3.26,3.26,0,0,0-.65-2.23A2.67,2.67,0,0,0,50.32,20a8.48,8.48,0,0,0-3.63,1l-.6-1.49a9.14,9.14,0,0,1,2.08-.81,9,9,0,0,1,2.27-.29,4.89,4.89,0,0,1,3.4,1,4.26,4.26,0,0,1,1.11,3.27v8.77Zm-4.39-1.37a4,4,0,0,0,2.85-1,3.68,3.68,0,0,0,1-2.79V25.18l-1.95.08a7.08,7.08,0,0,0-3.35.72,2.17,2.17,0,0,0-1,2,2,2,0,0,0,.64,1.61A2.65,2.65,0,0,0,49.11,30.12Z" style="fill:#f7f8f8"/><path d="M75.33,31.49V23.14a3.47,3.47,0,0,0-.66-2.3,2.54,2.54,0,0,0-2-.77,3.29,3.29,0,0,0-2.68,1,5,5,0,0,0-.87,3.21v7.17H67.13V23.14a3.47,3.47,0,0,0-.66-2.3,2.55,2.55,0,0,0-2.05-.77,3.18,3.18,0,0,0-2.68,1.1,5.93,5.93,0,0,0-.85,3.59v6.74H59V18.65h1.58l.32,1.76h.09a3.82,3.82,0,0,1,1.55-1.46,4.74,4.74,0,0,1,2.24-.53q3,0,3.94,2.18h.09A4.1,4.1,0,0,1,70.44,19a5.16,5.16,0,0,1,2.48-.59,4.35,4.35,0,0,1,3.26,1.12,5,5,0,0,1,1.08,3.58v8.38Z" style="fill:#f7f8f8"/><path d="M87.26,31.73A5.56,5.56,0,0,1,85,31.26a4.31,4.31,0,0,1-1.74-1.42h-.14A17.23,17.23,0,0,1,83.22,32v5.29H81.28V18.65h1.58l.27,1.76h.09A4.52,4.52,0,0,1,85,18.88a5.31,5.31,0,0,1,2.29-.47,4.75,4.75,0,0,1,3.94,1.75,7.69,7.69,0,0,1,1.39,4.9A7.64,7.64,0,0,1,91.18,30,4.76,4.76,0,0,1,87.26,31.73ZM87,20.07a3.45,3.45,0,0,0-2.85,1.09,5.61,5.61,0,0,0-.9,3.47v.43a6.43,6.43,0,0,0,.9,3.87A3.43,3.43,0,0,0,87,30.1a3,3,0,0,0,2.61-1.35A6.39,6.39,0,0,0,90.57,25a6.15,6.15,0,0,0-.94-3.69A3.1,3.1,0,0,0,87,20.07Z" style="fill:#f7f8f8"/><path d="M97.93,31.49H96V13.26h1.95Z" style="fill:#f7f8f8"/><path d="M107.48,31.73A5.9,5.9,0,0,1,103,30a6.71,6.71,0,0,1-1.65-4.82,7.45,7.45,0,0,1,1.53-4.93A5.08,5.08,0,0,1,107,18.41,4.84,4.84,0,0,1,110.8,20a6.09,6.09,0,0,1,1.41,4.19v1.23h-8.85a5.09,5.09,0,0,0,1.14,3.43A4,4,0,0,0,107.55,30a10.34,10.34,0,0,0,4.1-.87v1.73a10.29,10.29,0,0,1-2,.64A11,11,0,0,1,107.48,31.73ZM107,20a3.18,3.18,0,0,0-2.47,1,4.65,4.65,0,0,0-1.08,2.79h6.71A4.28,4.28,0,0,0,109.3,21,2.89,2.89,0,0,0,107,20Z" style="fill:#f7f8f8"/><path d="M123.7,31.49h-1.95V13.26h1.95Z" style="fill:#f7f8f8"/><path d="M138.91,25.06a7.09,7.09,0,0,1-1.58,4.9A5.57,5.57,0,0,1,133,31.73a5.79,5.79,0,0,1-3.06-.81,5.34,5.34,0,0,1-2.06-2.32,8.09,8.09,0,0,1-.73-3.54,7.07,7.07,0,0,1,1.57-4.89A5.55,5.55,0,0,1,133,18.41a5.43,5.43,0,0,1,4.28,1.79A7.05,7.05,0,0,1,138.91,25.06Zm-9.79,0a6.1,6.1,0,0,0,1,3.75,3.91,3.91,0,0,0,5.79,0,6.07,6.07,0,0,0,1-3.76,6,6,0,0,0-1-3.72A3.48,3.48,0,0,0,133,20.07a3.42,3.42,0,0,0-2.88,1.25A6,6,0,0,0,129.13,25.06Z" style="fill:#f7f8f8"/><path d="M152.83,18.65v1.23l-2.38.28a4.18,4.18,0,0,1,.84,2.57,3.8,3.8,0,0,1-1.29,3,5.2,5.2,0,0,1-3.54,1.13,5.89,5.89,0,0,1-1.08-.09,1.91,1.91,0,0,0-1.24,1.65.84.84,0,0,0,.43.78,3.17,3.17,0,0,0,1.49.25h2.27a5.09,5.09,0,0,1,3.21.88,3.06,3.06,0,0,1,1.12,2.55A3.65,3.65,0,0,1,151,36.14a9.16,9.16,0,0,1-5,1.12,6.82,6.82,0,0,1-3.88-.94,3,3,0,0,1-1.37-2.65,3,3,0,0,1,.75-2,3.82,3.82,0,0,1,2.11-1.16,2,2,0,0,1-.83-.69,1.83,1.83,0,0,1-.33-1.09,2.07,2.07,0,0,1,.38-1.23,3.94,3.94,0,0,1,1.18-1,3.47,3.47,0,0,1-1.62-1.4,4.1,4.1,0,0,1-.63-2.25A4.16,4.16,0,0,1,143,19.56a5.17,5.17,0,0,1,3.59-1.14,6.52,6.52,0,0,1,1.82.23Zm-10.24,15a1.74,1.74,0,0,0,.88,1.58,4.85,4.85,0,0,0,2.52.54,7,7,0,0,0,3.63-.73,2.24,2.24,0,0,0,1.18-2,1.57,1.57,0,0,0-.64-1.45,5,5,0,0,0-2.43-.4h-2.33a3.07,3.07,0,0,0-2.06.63A2.26,2.26,0,0,0,142.59,33.65Zm1.05-10.89a2.61,2.61,0,0,0,.76,2,3,3,0,0,0,2.12.69q2.85,0,2.85-2.77a2.55,2.55,0,0,0-2.88-2.89,2.85,2.85,0,0,0-2.11.74A3,3,0,0,0,143.65,22.76Z" style="fill:#f7f8f8"/><path d="M166.56,25.06A7.09,7.09,0,0,1,165,30a5.57,5.57,0,0,1-4.37,1.76,5.79,5.79,0,0,1-3.06-.81,5.34,5.34,0,0,1-2.06-2.32,8.09,8.09,0,0,1-.73-3.54,7.07,7.07,0,0,1,1.57-4.89,5.55,5.55,0,0,1,4.36-1.75A5.43,5.43,0,0,1,165,20.21,7.05,7.05,0,0,1,166.56,25.06Zm-9.79,0a6.1,6.1,0,0,0,1,3.75,3.91,3.91,0,0,0,5.79,0,6.07,6.07,0,0,0,1-3.76,6,6,0,0,0-1-3.72,3.48,3.48,0,0,0-2.92-1.27,3.42,3.42,0,0,0-2.88,1.25A6,6,0,0,0,156.77,25.06Z" style="fill:#f7f8f8"/></svg>