<svg xmlns="http://www.w3.org/2000/svg" viewBox="0 0 449.38 51.91"><title>アセット 1</title><g id="レイヤー_2" data-name="レイヤー 2"><g id="レイヤー_1-2" data-name="レイヤー 1"><rect x="109.66" width="15.07" height="42.86" style="fill:#231815"/><rect x="348.84" width="15.97" height="51.91" style="fill:#231815"/><rect x="54.4" y="-30.44" width="8.54" height="69.42" transform="translate(62.94 -54.4) rotate(90)" style="fill:#231815"/><rect x="256.39" y="-32.55" width="8.54" height="73.64" transform="translate(264.93 -256.39) rotate(90)" style="fill:#231815"/><rect x="351.93" y="-35.01" width="8.54" height="78.57" transform="translate(360.47 -351.93) rotate(90)" style="fill:#231815"/><rect x="406.78" y="-3.92" width="8.54" height="16.38" transform="translate(415.31 -406.78) rotate(90)" style="fill:#949495"/><rect x="383.55" y="-3.4" width="8.54" height="15.33" transform="translate(392.08 -383.55) rotate(90)" style="fill:#666464"/><polygon points="21.39 0 12.85 8.54 12.85 51.91 27.92 51.91 27.92 0 21.39 0" style="fill:#231815"/><polygon points="222.31 0 213.77 8.54 213.77 51.91 228.91 51.91 228.91 0 222.31 0" style="fill:#231815"/><polygon points="293.5 0 302.82 8.54 302.82 51.91 287.13 51.91 287.13 0 293.5 0" style="fill:#231815"/><polygon points="109.66 42.86 109.66 43.37 118.2 51.91 185.58 51.91 185.58 42.86 109.66 42.86" style="fill:#231815"/><rect x="292.93" width="9.89" height="8.54" style="fill:#231815"/><polygon points="208.85 28.64 200.69 36.8 278.97 36.8 278.97 28.64 208.85 28.64" style="fill:#231815"/><polygon points="8.16 23.93 0 32.09 93.38 32.09 93.38 23.93 8.16 23.93" style="fill:#231815"/><path d="M398.32,25h-1.95v-1.3h-2.59v3.13H397l1.36,1.35v4.3L397,33.78h-3.77l-1.35-1.35V30.54h1.94v1.3h2.59V28.73h-3.18l-1.35-1.37V23.08l1.35-1.37H397l1.36,1.37Z" style="fill:#231815"/><path d="M403.79,28.73v3.11h4.53v1.94h-6.48V21.71h6.48v1.94h-4.53v3.13h2.59v1.95Z" style="fill:#231815"/><path d="M410.78,21.71h1.94V31.84h4.54v1.94h-6.48Z" style="fill:#231815"/><path d="M419.23,21.71h1.95V31.84h4.53v1.94h-6.48Z" style="fill:#231815"/><path d="M428.5,33.78V21.71h1.95V33.78Z" style="fill:#231815"/><path d="M437.92,21.71h1.94V33.78h-1.94l-2.6-7.06v7.06h-1.94V21.71h1.94l2.6,7.06Z" style="fill:#231815"/><path d="M449.38,26.78v5.65L448,33.78h-3.77l-1.35-1.35V23.08l1.35-1.37H448l1.35,1.37V25h-1.94v-1.3h-2.59v8.19h2.59V28.73h-.81V26.78Z" style="fill:#231815"/><path d="M398.32,42.27h-1.95V41h-2.59v3.13H397l1.36,1.35v4.3L397,51.11h-3.77l-1.35-1.35V47.87h1.94v1.3h2.59V46.05h-3.18l-1.35-1.37V40.4L393.19,39H397l1.36,1.36Z" style="fill:#231815"/><path d="M406.32,39h2l-2.26,7.7v4.37h-1.94V46.74L401.84,39h2l1.23,3.66Z" style="fill:#231815"/><path d="M418.33,42.27h-1.94V41h-2.6v3.13H417l1.35,1.35v4.3L417,51.11H413.2l-1.35-1.35V47.87h1.94v1.3h2.6V46.05H413.2l-1.35-1.37V40.4L413.2,39H417l1.35,1.36Z" style="fill:#231815"/><path d="M428.34,39V41h-2.28V51.11h-1.93V41h-2.27V39Z" style="fill:#231815"/><path d="M433.81,46.05v3.12h4.53v1.94h-6.48V39h6.48V41h-4.53v3.13h2.59v1.94Z" style="fill:#231815"/><path d="M447.44,39h1.94V51.11h-1.94v-7l-1.81,4.07-1.82-4.07v7h-1.94V39h1.94l1.82,4.2Z" style="fill:#231815"/><polygon points="12.85 34.13 12.85 32.09 10.81 32.09 12.85 34.13" style="fill:#231815"/><polygon points="27.92 34.13 27.92 32.09 29.96 32.09 27.92 34.13" style="fill:#231815"/><polygon points="213.77 38.84 213.77 36.8 211.73 36.8 213.77 38.84" style="fill:#231815"/><polygon points="228.91 38.84 228.91 36.8 230.94 36.8 228.91 38.84" style="fill:#231815"/><polygon points="228.91 12.11 228.91 8.54 232.47 8.54 228.91 12.11" style="fill:#231815"/><polygon points="364.82 12.11 364.82 8.54 368.39 8.54 364.82 12.11" style="fill:#231815"/><polygon points="348.84 12.11 348.84 8.54 345.27 8.54 348.84 12.11" style="fill:#231815"/><polygon points="27.92 12.11 27.92 8.54 31.49 8.54 27.92 12.11" style="fill:#231815"/><polygon points="124.74 39.29 124.74 42.86 128.31 42.86 124.74 39.29" style="fill:#231815"/><polygon points="27.14 9.94 27.14 8.54 28.54 8.54 27.14 9.94" style="fill:#231815"/><polygon points="185.58 42.86 194.63 42.86 185.58 51.91 185.58 42.86" style="fill:#231815"/></g></g></svg>