<svg xmlns="http://www.w3.org/2000/svg" viewBox="0 0 511.63 438.53"><defs><style>.cls-1{fill:#fff;}</style></defs><g id="レイヤー_2" data-name="レイヤー 2"><g id="Capa_1" data-name="Capa 1"><path class="cls-1" d="M392.86,255.81H374.58a8.8,8.8,0,0,0-9.13,9.13V356.3A45.8,45.8,0,0,1,319.77,402H82.22A44,44,0,0,1,50,388.57,44,44,0,0,1,36.54,356.3V118.76A44,44,0,0,1,50,86.5,44,44,0,0,1,82.22,73.09h201A8.78,8.78,0,0,0,292.35,64V45.67a8.78,8.78,0,0,0-9.13-9.13h-201q-34,0-58.1,24.13T0,118.77V356.31q0,34,24.12,58.09t58.1,24.13H319.77q34,0,58.1-24.13T402,356.31V265a8.81,8.81,0,0,0-9.14-9.14Z"/><path class="cls-1" d="M506.2,5.42A17.61,17.61,0,0,0,493.35,0H347.17a17.59,17.59,0,0,0-12.85,5.42,17.59,17.59,0,0,0-5.42,12.85,17.59,17.59,0,0,0,5.42,12.85l50.25,50.25L198.42,267.52a9,9,0,0,0,0,13.13L231,313.2a9,9,0,0,0,13.14,0L430.25,127.05l50.26,50.25a18.28,18.28,0,0,0,31.12-12.85V18.27A17.6,17.6,0,0,0,506.2,5.42Z"/></g></g></svg>